<svg xmlns="http://www.w3.org/2000/svg" viewBox="0 0 105.83 118.42"><defs><style>.cls-1{fill:#bfbfbf;}</style></defs><g id="Layer_2" data-name="Layer 2"><g id="Layer_1-2" data-name="Layer 1"><path class="cls-1" d="M20,76.54a3.37,3.37,0,0,1-5.13,1.73c-.28-.16-.57-.3-1-.54a2.44,2.44,0,0,0,0,.92,13.28,13.28,0,0,0,1.41,2.88C16.83,83.64,17,86.18,17,88.69c-.78,3-.1,6.47,2,7.86,4.83,4.15,3.45,11.75,8.28,13.13,3.45,1.36,6.92,4.13,11.05,3.45-.12-.52-.28-1-.44-1.5C25.89,106.91,18.9,92.68,20,76.54Z"/><path class="cls-1" d="M105,56.62a18.63,18.63,0,0,0-2.07-2.88c-1.52-1.74-3.12-3.38-4.69-5.05a37.74,37.74,0,0,0-9-7.48,2.14,2.14,0,0,1-.64-.63,3.51,3.51,0,0,1-.49-3c.33-1.69.75-3.35,1-5,.3-2.14.35-4.3.7-6.41a14.38,14.38,0,0,0-1-7.71,40.46,40.46,0,0,0-2.67-4.81,5.52,5.52,0,0,0-.66-.85c-1-.94-2-1.87-3-2.77-2-1.71-3.94-3.4-6-5a11.54,11.54,0,0,0-2.7-1.66,43.05,43.05,0,0,0-5.58-1.88A51.26,51.26,0,0,0,61.71.25a69.55,69.55,0,0,0-11.9,0,24.78,24.78,0,0,0-5.13.79,13,13,0,0,0-5.33,3.36A40.22,40.22,0,0,0,29,20.71c-.47,1.31-1,2.6-1.48,3.89-.35.89-.82,1.71-1.92,1.85-1.92.24-3.87.43-5.77.75A32.43,32.43,0,0,0,4.54,33.66,11.93,11.93,0,0,0,1,47.64a22.28,22.28,0,0,0,3.45,5c2.14,2.6,3.71,5.35,3.85,8.87a48.62,48.62,0,0,0,1,6.26,3.92,3.92,0,0,0,.31.82,1.06,1.06,0,0,1,.25,0A7.41,7.41,0,0,0,10.31,67c.16-2.09.3-4.18.33-6.27a15.64,15.64,0,0,1,1.55-5.89,5.75,5.75,0,0,1,1.33-1.64,2,2,0,0,1,1.9-.72,11.21,11.21,0,0,1,4.2,1.64,2.42,2.42,0,0,1,1,1.85c.09.92.31,1.83.4,2.77a16,16,0,0,1,.14,2.77c-.07,1.19-.35,2.39-.49,3.59a32.79,32.79,0,0,0-.26,6.12,6,6,0,0,1,0,1,46.46,46.46,0,0,1,1.22-5.75c5.77-21,23.38-34.5,39.36-30.14C69.85,38.68,76.3,46,79.37,55.57a3.83,3.83,0,0,1,.68.61,3.56,3.56,0,0,1,1.17,3.14c-.11.8-.23,1.59-.4,2.37v0a48.73,48.73,0,0,1-1.26,20.55c-.38,1.34-.78,2.63-1.25,3.89a3.26,3.26,0,0,0,1.88-2.69A4.74,4.74,0,0,1,82,80.13a2.79,2.79,0,0,0,1-2.82,4,4,0,0,1,1.57-4.15A3.43,3.43,0,0,0,85.47,72a29,29,0,0,0,1.12-3.12c.45-1.6,1-2.09,2.68-2.07A7.15,7.15,0,0,1,91,67a14.41,14.41,0,0,0,8.21-.51,10.2,10.2,0,0,0,6.64-6.5V58.8A17.18,17.18,0,0,0,105,56.62Z"/><path class="cls-1" d="M74.44,95.58a3.3,3.3,0,0,1-.82.21c-6.1,9.74-15.13,16.17-24.44,17.27a7.91,7.91,0,0,1-7.44.75,1.34,1.34,0,0,0-.7,2.09c1.38,1.38,2.77,2.74,4.78,2.48.43-.09.83-.18,1.25-.3,8.49-4.27,20.92-5,23.2-16.19A11.39,11.39,0,0,1,72.92,98c.73-.71,1.38-1.53,2.06-2.3a.65.65,0,0,1-.16-.17C74.7,95.54,74.56,95.54,74.44,95.58Z"/><path class="cls-1" d="M77.09,88.53A55.79,55.79,0,0,1,76.88,82V72.74a31.38,31.38,0,0,0-.52-6.81,6.64,6.64,0,0,0-3-3.76,10.69,10.69,0,0,0-6-1.65,12.19,12.19,0,0,0-6.13,1.73,22,22,0,0,0-5.87,5.19A9.06,9.06,0,0,0,52,62.25a10.19,10.19,0,0,0-6.16-1.73,12.67,12.67,0,0,0-6.26,1.62A18.08,18.08,0,0,0,34.13,67,16.34,16.34,0,0,0,33,60.52h-.37a41.09,41.09,0,0,1-8.84,1.69v1.73a7.53,7.53,0,0,1,3.59.6,2.36,2.36,0,0,1,1.17,1.79q.16,1.19.17,6.45V82a52.67,52.67,0,0,1-.22,6.65,2.36,2.36,0,0,1-1.23,1.64,7.9,7.9,0,0,1-3.48.54v1.73H38.91V90.82a6.79,6.79,0,0,1-3.5-.64,2.44,2.44,0,0,1-1.12-1.88c-.11-.82-.16-2.93-.16-6.31V69.17a21.16,21.16,0,0,1,4.95-4.51,9,9,0,0,1,4.76-1.51,6.2,6.2,0,0,1,4,1.3,5.06,5.06,0,0,1,1.94,3.12,38.83,38.83,0,0,1,.31,5.88V82a49.64,49.64,0,0,1-.24,6.69,2.33,2.33,0,0,1-1.24,1.62,8.28,8.28,0,0,1-3.51.52v1.73H60V90.82a5.74,5.74,0,0,1-3.29-.69,2.72,2.72,0,0,1-1.05-2q-.13-1.26-.13-6.18V69.84a21.1,21.1,0,0,1,4.94-5,8.78,8.78,0,0,1,4.91-1.65,6.36,6.36,0,0,1,3.91,1.13A4.64,4.64,0,0,1,71.15,67a22.82,22.82,0,0,1,.36,4.7V82a51.91,51.91,0,0,1-.23,6.63,2.36,2.36,0,0,1-1.22,1.66,7.79,7.79,0,0,1-3.44.54v1.73H82V90.82a8.31,8.31,0,0,1-3.71-.56A2.38,2.38,0,0,1,77.09,88.53Z"/></g></g></svg>