<svg xmlns="http://www.w3.org/2000/svg" viewBox="0 0 179.38 50.48"><defs><style>.cls-1{fill:#dbdbda;}.cls-2{fill:#f7f7f7;}</style></defs><g id="Layer_2" data-name="Layer 2"><g id="Layer_5" data-name="Layer 5"><path class="cls-1" d="M82,24.14a8.32,8.32,0,0,0-.88-1.23c-.65-.74-1.33-1.44-2-2.15a16.07,16.07,0,0,0-3.83-3.19A.87.87,0,0,1,75,17.3,1.49,1.49,0,0,1,74.81,16c.14-.72.32-1.43.42-2.15.13-.91.15-1.83.3-2.73a6.15,6.15,0,0,0-.43-3.29,17.19,17.19,0,0,0-1.14-2,2.48,2.48,0,0,0-.28-.36c-.43-.4-.84-.8-1.28-1.18-.84-.73-1.68-1.45-2.54-2.14a4.89,4.89,0,0,0-1.15-.71,18.48,18.48,0,0,0-2.38-.8A21.77,21.77,0,0,0,63.54.11a29.6,29.6,0,0,0-5.07,0,10.85,10.85,0,0,0-2.19.34A5.52,5.52,0,0,0,54,1.89a17.13,17.13,0,0,0-4.42,6.94c-.2.56-.41,1.11-.63,1.66-.15.38-.35.73-.82.79-.82.1-1.65.18-2.46.32a13.83,13.83,0,0,0-6.51,2.75,5.08,5.08,0,0,0-1.52,6,9.41,9.41,0,0,0,1.47,2.15,6.23,6.23,0,0,1,1.64,3.78,20.53,20.53,0,0,0,.41,2.67,1.66,1.66,0,0,0,.13.35h.11a3.14,3.14,0,0,0,.22-.72c.07-.89.13-1.78.14-2.67a6.63,6.63,0,0,1,.66-2.51,2.37,2.37,0,0,1,.57-.7.84.84,0,0,1,.81-.31,4.85,4.85,0,0,1,1.79.7,1,1,0,0,1,.43.79c0,.39.13.78.17,1.18a6.67,6.67,0,0,1,.06,1.18c0,.51-.15,1-.21,1.53a14.19,14.19,0,0,0-.11,2.61,2.75,2.75,0,0,1,0,.41,19.83,19.83,0,0,1,.52-2.45c2.46-9,10-14.71,16.78-12.85,3.75,1,6.5,4.15,7.81,8.23a1.75,1.75,0,0,1,.29.26,1.53,1.53,0,0,1,.5,1.34c0,.34-.1.68-.17,1h0a20.78,20.78,0,0,1-.54,8.76c-.16.57-.33,1.12-.53,1.66a1.4,1.4,0,0,0,.8-1.15,2,2,0,0,1,.77-1.42A1.18,1.18,0,0,0,72.6,33a1.71,1.71,0,0,1,.67-1.77,1.39,1.39,0,0,0,.4-.5,12.39,12.39,0,0,0,.48-1.33c.19-.68.42-.89,1.14-.88a3,3,0,0,1,.73.09,6.12,6.12,0,0,0,3.5-.22,4.34,4.34,0,0,0,2.83-2.77v-.51A6.86,6.86,0,0,0,82,24.14ZM45.75,32.63a1.44,1.44,0,0,1-2.19.74l-.44-.23a1,1,0,0,0,0,.39,5.62,5.62,0,0,0,.6,1.23,4.47,4.47,0,0,1,.75,3.05,3.18,3.18,0,0,0,.85,3.35c2.06,1.77,1.47,5,3.53,5.6,1.47.58,2.95,1.76,4.71,1.47,0-.22-.12-.43-.19-.64C48.27,45.58,45.29,39.51,45.75,32.63Z"/><path class="cls-1" d="M69.2,40.79c-.29.33-.57.68-.88,1a4.89,4.89,0,0,0-1.13,1.67c-1,4.79-6.27,5.08-9.89,6.9l-.53.13c-.86.11-1.45-.47-2-1.06a.57.57,0,0,1,.3-.89,3.37,3.37,0,0,0,3.17-.32c4-.47,7.82-3.21,10.42-7.36a1.64,1.64,0,0,0,.35-.09.9.9,0,0,1,.16,0A.23.23,0,0,0,69.2,40.79Z"/><path class="cls-2" d="M45.75,32.61c0-.61.11-1.23.21-1.85a8.29,8.29,0,0,1-.14,1.58A2.68,2.68,0,0,1,45.75,32.61Z"/><path class="cls-1" d="M6.55,18.77h.28a12.19,12.19,0,0,1,.81,4.8,13.56,13.56,0,0,1,4-3.6,9.45,9.45,0,0,1,4.65-1.2,7.59,7.59,0,0,1,4.57,1.28,6.82,6.82,0,0,1,2.46,3.85,16.37,16.37,0,0,1,4.35-3.85,9.07,9.07,0,0,1,4.54-1.28A7.93,7.93,0,0,1,36.74,20,4.92,4.92,0,0,1,39,22.79a23.08,23.08,0,0,1,.39,5.05V34.7a42.9,42.9,0,0,0,.15,4.85,1.72,1.72,0,0,0,.89,1.28,6.19,6.19,0,0,0,2.75.42v1.29H31.74V41.25a5.72,5.72,0,0,0,2.55-.4,1.72,1.72,0,0,0,.91-1.23,38.87,38.87,0,0,0,.17-4.92V27.08a16.66,16.66,0,0,0-.27-3.48,3.39,3.39,0,0,0-1.38-2,4.69,4.69,0,0,0-2.9-.84A6.49,6.49,0,0,0,27.18,22a15.55,15.55,0,0,0-3.67,3.71v9c0,2.43,0,4,.1,4.59a2,2,0,0,0,.78,1.45,4.28,4.28,0,0,0,2.44.51v1.29h-11V41.25a6.16,6.16,0,0,0,2.61-.39,1.73,1.73,0,0,0,.92-1.2,36.32,36.32,0,0,0,.18-5V28.37A28,28,0,0,0,19.26,24a3.75,3.75,0,0,0-1.44-2.31,4.54,4.54,0,0,0-3-1,6.73,6.73,0,0,0-3.53,1.12,15.81,15.81,0,0,0-3.67,3.35V34.7q0,3.77.12,4.68a1.84,1.84,0,0,0,.83,1.4,5.14,5.14,0,0,0,2.6.47v1.29H0V41.25a5.82,5.82,0,0,0,2.58-.4,1.74,1.74,0,0,0,.91-1.22,39.56,39.56,0,0,0,.16-4.93V27.86c0-2.6,0-4.19-.12-4.78a1.71,1.71,0,0,0-.87-1.32A5.53,5.53,0,0,0,0,21.31V20A30.21,30.21,0,0,0,6.55,18.77Z"/><path class="cls-1" d="M69.54,38.35h1q-.25,4.77-4.69,4.77a4.3,4.3,0,0,1-3-1,5.05,5.05,0,0,1-1.43-3,29.43,29.43,0,0,1-5.09,3,10.49,10.49,0,0,1-4.12,1,6.12,6.12,0,0,1-4-1.34,4.3,4.3,0,0,1-1.68-3.54,6.25,6.25,0,0,1,2.8-5A34.39,34.39,0,0,1,57.12,29l4.33-1.76V26.16a13.34,13.34,0,0,0-.31-3.43,3.48,3.48,0,0,0-1.59-1.9A6.14,6.14,0,0,0,56.18,20Q52,20,51.52,22.79c-.3,1.89-1.08,2.84-2.34,2.84s-1.71-.54-1.71-1.62.76-2.19,2.26-3.41,3.85-1.83,7-1.83a11.12,11.12,0,0,1,5.5,1.12,5.82,5.82,0,0,1,2.58,2.53,11.4,11.4,0,0,1,.62,4.36V36a15.52,15.52,0,0,0,.34,4.15,1.38,1.38,0,0,0,1.45.93C68.48,41.09,69.24,40.17,69.54,38.35Zm-8.09-9.76-3,1.23q-7.2,2.92-7.2,7.36A4.21,4.21,0,0,0,52.13,40a3,3,0,0,0,2.4,1.08,6.92,6.92,0,0,0,3-.87,22.65,22.65,0,0,0,3.88-2.59Z"/><path class="cls-1" d="M93,37h1.22q-1.89,6.49-9.48,6.5a11.18,11.18,0,0,1-8.21-3.32,11.83,11.83,0,0,1-3.34-8.79,12.07,12.07,0,0,1,3.6-9.09,11.81,11.81,0,0,1,8.51-3.49,11.53,11.53,0,0,1,5.44,1.3c1.65.86,2.48,1.92,2.48,3.16a2.09,2.09,0,0,1-.46,1.31,1.57,1.57,0,0,1-1.33.62c-1.22,0-2-.72-2.26-2.15a4.14,4.14,0,0,0-1-2.26,4.39,4.39,0,0,0-2.81-.64,6.47,6.47,0,0,0-5.62,2.59c-1.26,1.73-1.89,4.34-1.89,7.81s.68,6.4,2,8.43A6.88,6.88,0,0,0,86,42Q91.49,42,93,37Z"/><path class="cls-1" d="M104.24,23.46A11.6,11.6,0,0,1,108,19.94a9.11,9.11,0,0,1,4.56-1.17,8.6,8.6,0,0,1,4.67,1.17,5.41,5.41,0,0,1,2.41,2.89,19.43,19.43,0,0,1,.56,5.56V34.7a39.89,39.89,0,0,0,.16,4.88,1.69,1.69,0,0,0,.9,1.27,6.56,6.56,0,0,0,2.79.4v1.29h-11.8V41.25h.53a4,4,0,0,0,2.64-.58,2.3,2.3,0,0,0,.7-1.38q.09-.8.09-4.59V27.84a19.67,19.67,0,0,0-.33-4.22,3.91,3.91,0,0,0-1.58-2.26,5.22,5.22,0,0,0-3.11-.89,6.46,6.46,0,0,0-3.9,1.27,10.64,10.64,0,0,0-3,3.81V34.7q0,3.84.12,4.74a1.84,1.84,0,0,0,.85,1.35,5.34,5.34,0,0,0,2.65.46v1.29H96.26V41.25h.59a4,4,0,0,0,2.6-.57,2.2,2.2,0,0,0,.7-1.37c.06-.53.1-2.06.1-4.61V11.94q0-3.46-.66-4.38c-.43-.62-1.48-.92-3.13-.92V5.35a19.14,19.14,0,0,0,7.19-1.17h.59Z"/><path class="cls-1" d="M148.08,27.42H132.16c-.08,1.09-.11,1.91-.11,2.45,0,4,.62,7,1.88,9.05a6.18,6.18,0,0,0,5.62,3,7.38,7.38,0,0,0,7.2-4.55h1.33a7.75,7.75,0,0,1-3.54,4.45,11,11,0,0,1-11.25.14,11.72,11.72,0,0,1-4.23-4.14,12.16,12.16,0,0,1-1.64-6.5,13.06,13.06,0,0,1,3.18-9,10.19,10.19,0,0,1,7.94-3.58,8.86,8.86,0,0,1,7,2.73A9.33,9.33,0,0,1,148.08,27.42ZM143.2,26.3a8.36,8.36,0,0,0,.09-1.14,4.79,4.79,0,0,0-5-5.16q-5.07,0-6,6.3Z"/><path class="cls-1" d="M158.13,18.77h.75a14.93,14.93,0,0,1,.72,4.71,14.61,14.61,0,0,1,4.22-3.54,9.68,9.68,0,0,1,4.6-1.17,8,8,0,0,1,4.47,1.14,5.12,5.12,0,0,1,2.25,2.81,17.89,17.89,0,0,1,.5,4.84V34.7a46.35,46.35,0,0,0,.14,4.82,1.78,1.78,0,0,0,.88,1.3,5.89,5.89,0,0,0,2.72.43v1.29H167.69V41.25h.53a4.06,4.06,0,0,0,2.63-.58,2.18,2.18,0,0,0,.69-1.37c.06-.52.09-2,.09-4.6V27.33a19.13,19.13,0,0,0-.27-3.86,3.66,3.66,0,0,0-1.42-2,4.7,4.7,0,0,0-2.94-.89,7,7,0,0,0-3.89,1.21,12.91,12.91,0,0,0-3.51,3.64V34.7a41.27,41.27,0,0,0,.16,4.82,1.79,1.79,0,0,0,.89,1.3,6,6,0,0,0,2.75.43v1.29H151.85V41.25a6.42,6.42,0,0,0,2.68-.39,1.7,1.7,0,0,0,.93-1.18,36.39,36.39,0,0,0,.18-5V27.89a42.54,42.54,0,0,0-.15-4.84,1.8,1.8,0,0,0-.89-1.28,6,6,0,0,0-2.75-.43V20.05A35.92,35.92,0,0,0,158.13,18.77Z"/></g></g></svg>