<svg xmlns="http://www.w3.org/2000/svg" viewBox="0 0 167.61 47.17"><defs><style>.cls-1{fill:#fff;}</style></defs><g id="Layer_2" data-name="Layer 2"><g id="Layer_1-2" data-name="Layer 1"><path d="M76.62,22.55a7.75,7.75,0,0,0-.82-1.15c-.61-.69-1.25-1.34-1.87-2a14.65,14.65,0,0,0-3.58-3,.85.85,0,0,1-.25-.25A1.41,1.41,0,0,1,69.9,15c.13-.67.3-1.34.4-2,.12-.85.13-1.71.28-2.55a5.75,5.75,0,0,0-.41-3.07,14.37,14.37,0,0,0-1.06-1.92,1.44,1.44,0,0,0-.27-.33c-.39-.38-.78-.75-1.19-1.11-.78-.68-1.57-1.35-2.37-2a4.6,4.6,0,0,0-1.08-.66A17,17,0,0,0,62,.58,20.68,20.68,0,0,0,59.37.1a26.69,26.69,0,0,0-4.73,0,10.26,10.26,0,0,0-2.06.31,5.22,5.22,0,0,0-2.11,1.34,16.16,16.16,0,0,0-4.14,6.48c-.18.52-.37,1-.58,1.56-.14.35-.33.68-.76.73-.77.1-1.54.17-2.31.3a13,13,0,0,0-6.07,2.57A4.76,4.76,0,0,0,35.18,19a9,9,0,0,0,1.38,2,5.88,5.88,0,0,1,1.53,3.53,19.35,19.35,0,0,0,.38,2.5,2.08,2.08,0,0,0,.12.32h.11a3.22,3.22,0,0,0,.2-.67C39,25.84,39,25,39,24.18a6.16,6.16,0,0,1,.62-2.35,2.37,2.37,0,0,1,.53-.66.79.79,0,0,1,.76-.28,4.62,4.62,0,0,1,1.67.65,1,1,0,0,1,.41.74c0,.37.11.73.15,1.1a5.85,5.85,0,0,1,.06,1.1c0,.48-.14.95-.2,1.43a13.26,13.26,0,0,0-.1,2.44c0,.13,0,.27,0,.41a19,19,0,0,1,.49-2.31c2.29-8.38,9.31-13.75,15.67-12,3.5,1,6.08,3.87,7.31,7.69a2,2,0,0,1,.26.24,1.43,1.43,0,0,1,.47,1.25l-.15.94a19.6,19.6,0,0,1-.51,8.2c-.15.53-.31,1.05-.5,1.55a1.26,1.26,0,0,0,.74-1.07,1.92,1.92,0,0,1,.73-1.33,1.12,1.12,0,0,0,.38-1.12,1.6,1.6,0,0,1,.62-1.66,1.3,1.3,0,0,0,.38-.46,10.73,10.73,0,0,0,.44-1.24c.18-.64.4-.83,1.07-.82a3.08,3.08,0,0,1,.68.08,5.68,5.68,0,0,0,3.27-.21A4,4,0,0,0,77,23.9v-.49A6.36,6.36,0,0,0,76.62,22.55ZM49.85,44.45c-4.76-1.88-7.53-7.56-7.1-14a1.34,1.34,0,0,1-2,.69L40.29,31c0,.15,0,.28,0,.36a5.14,5.14,0,0,0,.57,1.15,4.2,4.2,0,0,1,.7,2.85,3,3,0,0,0,.79,3.13c1.92,1.65,1.37,4.68,3.3,5.23,1.38.55,2.75,1.65,4.4,1.38A4.31,4.31,0,0,0,49.85,44.45Z"/><path d="M64.66,38.11c-.27.31-.53.63-.82.91a4.62,4.62,0,0,0-1.05,1.56c-.91,4.48-5.87,4.75-9.25,6.45l-.49.12c-.81.11-1.36-.44-1.91-1a.53.53,0,0,1,.28-.83,3.15,3.15,0,0,0,3-.3c3.71-.43,7.31-3,9.76-6.88l.31-.08a.39.39,0,0,1,.15,0Z"/><path class="cls-1" d="M42.75,30.48a17.11,17.11,0,0,1,.2-1.72,8.88,8.88,0,0,1-.13,1.45A2.68,2.68,0,0,1,42.75,30.48Z"/><path d="M6.12,17.59h.27a11.44,11.44,0,0,1,.75,4.48,12.62,12.62,0,0,1,3.77-3.36,8.75,8.75,0,0,1,4.34-1.12,7.06,7.06,0,0,1,4.27,1.2,6.24,6.24,0,0,1,2.29,3.59,15.25,15.25,0,0,1,4.07-3.59,8.44,8.44,0,0,1,4.25-1.2,7.39,7.39,0,0,1,4.19,1.14,4.58,4.58,0,0,1,2.09,2.61,21.87,21.87,0,0,1,.36,4.72v6.41A37.36,37.36,0,0,0,36.92,37a1.62,1.62,0,0,0,.83,1.2,5.8,5.8,0,0,0,2.57.39v1.2H29.66v-1.2A5.39,5.39,0,0,0,32,38.22a1.64,1.64,0,0,0,.85-1.15,34.8,34.8,0,0,0,.16-4.6V25.36a16.21,16.21,0,0,0-.25-3.26,3.26,3.26,0,0,0-1.29-1.88,4.42,4.42,0,0,0-2.71-.78,6,6,0,0,0-3.4,1.15A14.59,14.59,0,0,0,22,24.05v8.42q0,3.42.09,4.29a1.86,1.86,0,0,0,.73,1.35,4,4,0,0,0,2.28.48v1.2H14.75v-1.2a5.77,5.77,0,0,0,2.44-.36,1.61,1.61,0,0,0,.86-1.12,34.22,34.22,0,0,0,.17-4.64V26.55A27.63,27.63,0,0,0,18,22.47a3.52,3.52,0,0,0-1.35-2.16,4.28,4.28,0,0,0-2.78-.9,6.28,6.28,0,0,0-3.3,1,14.89,14.89,0,0,0-3.43,3.13v8.89c0,2.35,0,3.81.11,4.38A1.69,1.69,0,0,0,8,38.15a4.68,4.68,0,0,0,2.42.44v1.2H0v-1.2a5.48,5.48,0,0,0,2.41-.37,1.65,1.65,0,0,0,.85-1.14,37.65,37.65,0,0,0,.15-4.61V26.08c0-2.43,0-3.92-.11-4.46a1.64,1.64,0,0,0-.81-1.24A5.19,5.19,0,0,0,0,20v-1.2A28.2,28.2,0,0,0,6.12,17.59Z"/><path d="M65,35.88h1c-.16,3-1.62,4.46-4.38,4.46a4,4,0,0,1-2.8-.94,4.6,4.6,0,0,1-1.34-2.79,26.74,26.74,0,0,1-4.76,2.79,9.72,9.72,0,0,1-3.85.94,5.78,5.78,0,0,1-3.72-1.25,4,4,0,0,1-1.57-3.31,5.84,5.84,0,0,1,2.62-4.69,32.32,32.32,0,0,1,7.24-3.91l4-1.64V24.49a12.73,12.73,0,0,0-.29-3.2,3.28,3.28,0,0,0-1.49-1.77,5.7,5.7,0,0,0-3.15-.79q-3.91,0-4.35,2.61C47.86,23.11,47.13,24,46,24s-1.59-.5-1.59-1.51.7-2.06,2.11-3.2,3.6-1.7,6.57-1.7a10.48,10.48,0,0,1,5.13,1A5.44,5.44,0,0,1,60.58,21a10.65,10.65,0,0,1,.59,4.07V33.7a14.54,14.54,0,0,0,.31,3.88,1.3,1.3,0,0,0,1.36.86C64,38.44,64.7,37.59,65,35.88Zm-7.55-9.12-2.85,1.15q-6.72,2.73-6.72,6.88a3.92,3.92,0,0,0,.86,2.64,2.81,2.81,0,0,0,2.24,1,6.47,6.47,0,0,0,2.84-.81,21.27,21.27,0,0,0,3.63-2.42Z"/><path d="M86.89,34.58H88q-1.77,6.08-8.86,6.07a10.46,10.46,0,0,1-7.68-3.1,11.09,11.09,0,0,1-3.11-8.21,11.29,11.29,0,0,1,3.36-8.49,11,11,0,0,1,8-3.26,10.79,10.79,0,0,1,5.08,1.21c1.55.81,2.32,1.79,2.32,3A2,2,0,0,1,86.67,23a1.45,1.45,0,0,1-1.24.58c-1.14,0-1.85-.67-2.11-2a4,4,0,0,0-1-2.11,4.13,4.13,0,0,0-2.63-.6,6.1,6.1,0,0,0-5.26,2.42q-1.75,2.43-1.76,7.3c0,3.35.63,6,1.89,7.87a6.42,6.42,0,0,0,5.72,2.84Q85.48,39.27,86.89,34.58Z"/><path d="M97.4,22a11,11,0,0,1,3.5-3.29,8.52,8.52,0,0,1,4.26-1.09,8,8,0,0,1,4.37,1.09,5.09,5.09,0,0,1,2.25,2.7,18.39,18.39,0,0,1,.52,5.2v5.89a37.89,37.89,0,0,0,.15,4.56,1.59,1.59,0,0,0,.84,1.19,6.21,6.21,0,0,0,2.61.37v1.2h-11v-1.2h.49a3.78,3.78,0,0,0,2.46-.54,2.11,2.11,0,0,0,.65-1.29c.07-.5.1-1.93.1-4.29V26.06a17.88,17.88,0,0,0-.32-3.94A3.64,3.64,0,0,0,106.79,20a4.88,4.88,0,0,0-2.91-.83,6,6,0,0,0-3.64,1.18,9.9,9.9,0,0,0-2.84,3.56v8.55c0,2.4,0,3.87.11,4.43a1.69,1.69,0,0,0,.8,1.26,4.93,4.93,0,0,0,2.47.43v1.2H89.94v-1.2h.55a3.78,3.78,0,0,0,2.44-.53,2.09,2.09,0,0,0,.65-1.28c.06-.49.09-1.93.09-4.31V11.2c0-2.15-.21-3.52-.61-4.09s-1.39-.86-2.94-.86V5.05A17.92,17.92,0,0,0,96.85,4h.55Z"/><path d="M138.37,25.67H123.48c-.07,1-.1,1.79-.1,2.29q0,5.63,1.76,8.46a5.79,5.79,0,0,0,5.25,2.83A6.88,6.88,0,0,0,137.11,35h1.26a7.27,7.27,0,0,1-3.31,4.15,10.25,10.25,0,0,1-5.4,1.5,10.13,10.13,0,0,1-5.12-1.37,10.92,10.92,0,0,1-4-3.87,11.4,11.4,0,0,1-1.54-6.07,12.18,12.18,0,0,1,3-8.4,9.5,9.5,0,0,1,7.43-3.35,8.28,8.28,0,0,1,6.49,2.55A8.78,8.78,0,0,1,138.37,25.67Zm-4.57-1.05a7,7,0,0,0,.08-1.06,4.48,4.48,0,0,0-4.64-4.83c-3.16,0-5,2-5.65,5.89Z"/><path d="M147.75,17.59h.7a14.09,14.09,0,0,1,.68,4.4,13.76,13.76,0,0,1,3.93-3.31,9.07,9.07,0,0,1,4.31-1.09,7.43,7.43,0,0,1,4.18,1.07,4.84,4.84,0,0,1,2.1,2.62,16.63,16.63,0,0,1,.47,4.52v6.67a41.87,41.87,0,0,0,.13,4.51,1.62,1.62,0,0,0,.82,1.21,5.5,5.5,0,0,0,2.54.4v1.2H156.69v-1.2h.49a3.8,3.8,0,0,0,2.45-.54,2,2,0,0,0,.65-1.28c.06-.49.08-1.92.08-4.3V25.59a17.77,17.77,0,0,0-.25-3.61,3.37,3.37,0,0,0-1.32-1.92,4.43,4.43,0,0,0-2.75-.83,6.6,6.6,0,0,0-3.64,1.13,11.92,11.92,0,0,0-3.27,3.41v8.7a40.68,40.68,0,0,0,.14,4.51,1.69,1.69,0,0,0,.84,1.21,5.57,5.57,0,0,0,2.56.4v1.2H141.88v-1.2a6.09,6.09,0,0,0,2.51-.36,1.6,1.6,0,0,0,.87-1.11,34.09,34.09,0,0,0,.17-4.65V26.11a40.66,40.66,0,0,0-.14-4.52,1.69,1.69,0,0,0-.84-1.2,5.62,5.62,0,0,0-2.57-.4v-1.2A33.83,33.83,0,0,0,147.75,17.59Z"/></g></g></svg>