<svg xmlns="http://www.w3.org/2000/svg" viewBox="0 0 360.04 107.45"><defs><style>.cls-1{fill:#dbdbda;}</style></defs><g id="Layer_2" data-name="Layer 2"><g id="Layer_1-2" data-name="Layer 1"><path class="cls-1" d="M360,52.46a8.89,8.89,0,0,1-5.8,5.67,12.49,12.49,0,0,1-7.17.45,7,7,0,0,0-1.51-.18c-1.47,0-1.94.4-2.34,1.8a22.2,22.2,0,0,1-1,2.73,2.89,2.89,0,0,1-.82,1,3.49,3.49,0,0,0-1.36,3.63,2.43,2.43,0,0,1-.84,2.46A4.14,4.14,0,0,0,337.63,73a2.84,2.84,0,0,1-2.69,2.64,2.69,2.69,0,0,0-2,1.46,15.15,15.15,0,0,1-1.56,2c-.08.09-.27.1-.63.22a10,10,0,0,1,.31-1.62,8.16,8.16,0,0,1,.64-1.15c.36-.69.18-1.14-.58-1.26A12.71,12.71,0,0,1,324.79,72a18.53,18.53,0,0,1-2.8-3.24,6.79,6.79,0,0,1-1-3.73,6.79,6.79,0,0,0-.34-1.74,1.39,1.39,0,0,0-2-.88,5.58,5.58,0,0,0-1.4.85,11.26,11.26,0,0,1-4.08,2,1.1,1.1,0,0,1-.45.11c-.33,0-.65-.15-1-.23a2.52,2.52,0,0,1,.47-.8,19.56,19.56,0,0,0,3.68-4.24,2.48,2.48,0,0,0-1.45-4,1.22,1.22,0,0,0-1.39.33,6.67,6.67,0,0,1-.79.71,1.8,1.8,0,0,1-1.68.31,2.15,2.15,0,0,0-1.33.05,3.47,3.47,0,0,1-2.82.09l-.44-.16c-1.36-.51-2.07-.19-2.37,1.24A5.33,5.33,0,0,0,305.54,64l1.2,1.09-.07.23a3.51,3.51,0,0,1-.91,0,6.8,6.8,0,0,1-3.92-2.55,13.7,13.7,0,0,1-1.66-2.91,7.48,7.48,0,0,0-1.73-2.39c-1.06-1-2-2.11-3.09-3.09a8.08,8.08,0,0,0-3.31-1.75,1.18,1.18,0,0,0-1.41.41,8.76,8.76,0,0,0-2,4.31,3.23,3.23,0,0,0,.06,1.24c.55,1.88.77,3.87,1.72,5.62a24.7,24.7,0,0,0,1.26,2.18,5,5,0,0,1,.87,3.18,10.25,10.25,0,0,1-1.63,5.76c-2.56,4.82.46,10.25,1.06,15.08,3-.6,0-3.62.6-3,3.63,3,7.25,6.65,8.46,11.48-3.63.6-6.64-1.81-9.66-3-4.23-1.21-3-7.85-7.25-11.48-1.81-1.2-2.42-4.22-1.74-6.86.09-2.2-.09-4.4-1.53-6.25a11.69,11.69,0,0,1-1.25-2.53,2.18,2.18,0,0,1,0-.79c.4.2.66.32.91.46a3,3,0,0,0,4.64-2.11,16.52,16.52,0,0,0,.24-4.09,28,28,0,0,1,.22-5.34c.13-1.05.37-2.09.44-3.14a14,14,0,0,0-.13-2.42c-.08-.81-.26-1.61-.34-2.42a2.17,2.17,0,0,0-.89-1.62A10,10,0,0,0,281,45.85a1.72,1.72,0,0,0-1.67.63,4.94,4.94,0,0,0-1.15,1.44,13.25,13.25,0,0,0-1.36,5.14c0,1.83-.16,3.66-.3,5.49A7.38,7.38,0,0,1,276.1,60l-.24,0a4.61,4.61,0,0,1-.25-.71,42.87,42.87,0,0,1-.85-5.49,12.77,12.77,0,0,0-3.35-7.74,19.68,19.68,0,0,1-3-4.4,10.43,10.43,0,0,1,3.13-12.23,28.36,28.36,0,0,1,13.34-5.64c1.67-.28,3.36-.44,5-.66,1-.12,1.36-.84,1.67-1.61.46-1.13.88-2.27,1.29-3.41a35.43,35.43,0,0,1,9.07-14.23A11.6,11.6,0,0,1,306.58.93a22.76,22.76,0,0,1,4.51-.69,59.1,59.1,0,0,1,10.39,0,43,43,0,0,1,5.72,1.06,36.72,36.72,0,0,1,4.87,1.65,9.36,9.36,0,0,1,2.36,1.43c1.77,1.43,3.49,2.91,5.21,4.4.9.78,1.75,1.6,2.62,2.43a3.07,3.07,0,0,1,.57.72,32.39,32.39,0,0,1,2.34,4.22,12.48,12.48,0,0,1,.89,6.74c-.31,1.85-.35,3.74-.61,5.59-.21,1.48-.58,2.94-.87,4.41a3.08,3.08,0,0,0,.43,2.6,2.09,2.09,0,0,0,.56.55,32.59,32.59,0,0,1,7.85,6.53c1.36,1.47,2.78,2.9,4.1,4.41a16.79,16.79,0,0,1,1.8,2.53,11.9,11.9,0,0,1,.72,1.89ZM304.79,38.31c-2.69,0-4.09.95-4.65,3a5.89,5.89,0,0,0-.21,2.16c.14,1.18.46,2.33.68,3.5.14.77-.19,1.33-.95,1.36a2.58,2.58,0,0,1-1.53-.43,31,31,0,0,1-2.6-2.13c-.55-.48-1-.55-1.46-.12a1.18,1.18,0,0,0-.25,1.65,2.82,2.82,0,0,0,.86.71,13.3,13.3,0,0,1,3.43,2.68,7.73,7.73,0,0,0,.73.67,2.51,2.51,0,0,0,3,.44,18.91,18.91,0,0,0,2.78-1.66,3.28,3.28,0,0,1,3.29-.54c1.17.4,2.37.7,3.56,1s2.23.54,3.33.87a3,3,0,0,1,1.33.7c1.21,1.38,2.69,2.58,3.31,4.41a3,3,0,0,0,.58,1,1.69,1.69,0,0,0,2.08.52c.93-.33,1.88-.62,2.82-.92a29.06,29.06,0,0,0,3.07-1,3.4,3.4,0,0,1,3.25,0,5.33,5.33,0,0,0,5.4.25A2.12,2.12,0,0,0,338,55c.21-1,.39-2.08.54-3.13a3.18,3.18,0,0,0-1-2.75,15.69,15.69,0,0,0-4.39-3A91.27,91.27,0,0,0,315.82,40,57.33,57.33,0,0,0,304.79,38.31Zm23.85,32.46c1.68.13,2.19-.48,2-2.07a9.79,9.79,0,0,1-.06-2.23c.1-1-.09-1.27-1.09-1a1.9,1.9,0,0,1-2-.62,16.62,16.62,0,0,1-1-2c-.18-.32-.45-.84-.66-.84a1.59,1.59,0,0,0-1.06.61,6.7,6.7,0,0,0-.8,1.66,3.74,3.74,0,0,0-.38,1.65c.5,3.46,1.93,4.81,5,4.87A.36.36,0,0,0,328.64,70.77ZM311.15,54.55l0-.26a6.09,6.09,0,0,0-3.49-1.12c-.17,0-.34.22-.51.34.15.14.27.36.45.41.9.28,1.82.54,2.74.75A2.49,2.49,0,0,0,311.15,54.55Z"/><path class="cls-1" d="M307.6,103.49c-1.77.23-3-1-4.19-2.19a1.16,1.16,0,0,1,.61-1.81c6.64,2.42,10.27-4.23,13.29-9.06,1.2-1.81-1.21-5.43-4.84-7.24.61,0,1.82-.61,2.57-.72,1.63-.13,3.26-.25,4.89-.27a3.06,3.06,0,0,1,2.61,1.7,2.13,2.13,0,0,1-.38,2.49c-1.84,1.63-2.44,6.46.58,6.46,1.21,0,2.42-3,4-4.29a4.88,4.88,0,0,0,.57-3.27,2.8,2.8,0,0,1,1.94-2.8.75.75,0,0,1,.62.24c.62,1.24,1.6,1.2,2.71.83a1.7,1.7,0,0,1,.31-.06l.14.14c-.59.67-1.15,1.38-1.8,2A10.19,10.19,0,0,0,329,89.07c-2,9.82-12.86,10.42-20.28,14.16Z"/><path class="cls-1" d="M313.57,70.77a2.67,2.67,0,0,1,1.9,1.17c.41.66.76,1.35,1.12,2a1.88,1.88,0,0,0,2.23,1.11,13.33,13.33,0,0,0,1.92-.69c.27-.1.51-.28.78-.36.49-.14.89.25.62.65-.93,1.33-1.94,2.6-3,3.86a.82.82,0,0,1-.68.15c-1.65-.4-3.14-1-3.67-2.85a6.12,6.12,0,0,0-2-3.08c-.4-.33-.73-.82-.45-1.27S313.17,71,313.57,70.77Z"/><path class="cls-1" d="M311.7,82.91c-.56,0-1.11.09-1.66.08-1.52,0-3-.14-4.56-.11a3.13,3.13,0,0,1-2.73-1.18c-.31-.4-.69-.75-1-1.18-.4-.65-.12-1.12.64-1.14a2.32,2.32,0,0,1,.53.05c2.24.65,4.5,1.26,6.72,2a13,13,0,0,1,2.11,1.12Z"/><path class="cls-1" d="M59.39,59h2.14A23.6,23.6,0,0,1,56,66.71c-2.27,2.05-4.49,3.08-6.64,3.08a5.44,5.44,0,0,1-3.81-1.54,5.68,5.68,0,0,1-1.66-4.38q0-2.53,2.43-9.65L51,40.69q2.09-6.06,2.09-7.61a3.88,3.88,0,0,0-.67-2.46,2.45,2.45,0,0,0-2-.82q-4.28,0-10.07,7.11T28.25,64.77L26.91,69.1H21L29.1,42.43q2.08-7,2.09-9.4a3.68,3.68,0,0,0-.57-2.24,2.1,2.1,0,0,0-1.77-.74q-3.48,0-9.4,7.33T7.66,64.22L6.17,69.1H.2L9.3,39.25A44.37,44.37,0,0,0,11.14,32a2.18,2.18,0,0,0-.27-1.2,1,1,0,0,0-.87-.4c-.86,0-2,.7-3.46,2.09a25.46,25.46,0,0,0-4.3,6H0a27.07,27.07,0,0,1,5.87-8.28Q9.35,27,12,27a3.83,3.83,0,0,1,3.06,1.3,5.16,5.16,0,0,1,1.12,3.48q0,3.63-3,12.29a44,44,0,0,1,8.31-12.09q5-5.09,9-5.08a5.36,5.36,0,0,1,4.31,1.67,7.59,7.59,0,0,1,1.41,5,30.48,30.48,0,0,1-2,9.85q4.23-8.66,9-12.59t8.55-3.93a6.58,6.58,0,0,1,4.83,1.92A7,7,0,0,1,58.45,34a14.66,14.66,0,0,1-.32,3.35c-.22.88-1,3.41-2.42,7.59L51.83,56.11q-2.38,6.82-2.38,8.41a2.54,2.54,0,0,0,.47,1.67,1.67,1.67,0,0,0,1.37.57,5.8,5.8,0,0,0,3.78-1.94A27.35,27.35,0,0,0,59.39,59Z"/><path class="cls-1" d="M97.7,27h6L94.81,56.16c-1.29,4.21-1.94,6.77-1.94,7.66a2.26,2.26,0,0,0,.45,1.52,1.67,1.67,0,0,0,1.34.52q3.44,0,7.91-7.86h2.09a26.56,26.56,0,0,1-5.54,8.14q-3.62,3.64-6.64,3.65a4.15,4.15,0,0,1-3.59-1.74,7.17,7.17,0,0,1-1.24-4.28,19.4,19.4,0,0,1,1-5.32A31.67,31.67,0,0,1,82.15,66q-4.25,3.75-8,3.75a7.63,7.63,0,0,1-6-3,11.94,11.94,0,0,1-2.51-8,32.58,32.58,0,0,1,3.88-14.5A39.47,39.47,0,0,1,79.67,31.44q6.24-5.18,10.67-5.17a6.27,6.27,0,0,1,4.1,1.24,6.25,6.25,0,0,1,2,3.73Zm-26,33.33a9.75,9.75,0,0,0,1,5,3.24,3.24,0,0,0,3,1.67q3.28,0,7.89-4.83t8-14.77c2.26-6.63,3.38-11.15,3.38-13.53a5.83,5.83,0,0,0-1.07-3.56,3.55,3.55,0,0,0-3.06-1.47q-6.06,0-12.58,12T71.68,60.34Z"/><path class="cls-1" d="M131.23,54.27h2a28,28,0,0,1-6.82,11.32q-4.38,4.2-9.1,4.2a7.9,7.9,0,0,1-6.44-3q-2.48-3-2.47-8.48a35.39,35.39,0,0,1,3.31-14A35.7,35.7,0,0,1,121,31.49q6-5.22,10.57-5.22A6.37,6.37,0,0,1,136.05,28,5.31,5.31,0,0,1,137.89,32q0,3.52-2.83,3.53t-3-3.93c-.06-2-.81-2.94-2.24-2.94-1.85,0-4,1.72-6.46,5.15A47.72,47.72,0,0,0,117,47.58q-2.64,8.58-2.64,13.06a6.76,6.76,0,0,0,1.44,4.53,4.47,4.47,0,0,0,3.49,1.69q2.92,0,6.39-3.41A24.37,24.37,0,0,0,131.23,54.27Z"/><path class="cls-1" d="M143.46,69.15h-5.92L155,11.69A36.6,36.6,0,0,0,156.5,6a1.9,1.9,0,0,0-.68-1.64,6.66,6.66,0,0,0-3.3-.5h-1.6l.6-2.09q7.9-.2,11.74-1.79h1.24L153.21,37.11q9-10.84,16.32-10.84a7.52,7.52,0,0,1,5,1.39,5.23,5.23,0,0,1,1.64,4.23q0,2.23-2.93,10.64L168.83,55q-2.54,7.31-2.54,8.45a3.06,3.06,0,0,0,.5,1.89,1.75,1.75,0,0,0,1.5.65q1.78,0,4-2.14a18.82,18.82,0,0,0,3.83-5.32h2.44a26.73,26.73,0,0,1-6,8.16q-3.48,3.08-6.61,3.08A5.26,5.26,0,0,1,162,68.1a6.14,6.14,0,0,1-1.64-4.48q0-3,2.78-10.59l4.23-11.49q2.94-7.92,2.93-9.95a2.43,2.43,0,0,0-.67-1.87,3,3,0,0,0-2.06-.62,10.71,10.71,0,0,0-5.27,1.82A24,24,0,0,0,156,37a34.56,34.56,0,0,0-4.8,8q-1.51,3.73-4,11.89Z"/><path class="cls-1" d="M205,55.71h2.38Q201,69.79,191.12,69.79a8.48,8.48,0,0,1-6.64-2.86,11.13,11.13,0,0,1-2.57-7.73,36.14,36.14,0,0,1,3.31-13.93,38.5,38.5,0,0,1,9.4-13.38q6.1-5.62,10.62-5.62A5.16,5.16,0,0,1,209.47,28a6.76,6.76,0,0,1,1.45,4.4q0,5.39-5.38,10.33t-16.11,9.52a26.81,26.81,0,0,0-1.4,8.21,7.71,7.71,0,0,0,1.25,4.78A4.38,4.38,0,0,0,193,66.86Q199.77,66.86,205,55.71Zm-14.78-6a38.91,38.91,0,0,0,11.54-8c3.42-3.39,5.13-6.45,5.13-9.21a4.34,4.34,0,0,0-.77-2.81,2.88,2.88,0,0,0-2.32-.92q-3,0-7,5.8A47.9,47.9,0,0,0,190.17,49.74Z"/><path class="cls-1" d="M249.87,59.05h2.53a29.67,29.67,0,0,1-6.09,8.06A9.68,9.68,0,0,1,240,69.79a5.74,5.74,0,0,1-3.86-1.37,5,5,0,0,1-1.62-4c0-1.49.77-4.44,2.29-8.85l5.33-15.18q2.13-6.21,2.13-8.06a3.53,3.53,0,0,0-.72-2.43,2.84,2.84,0,0,0-2.21-.8q-3.78,0-9.87,8.88T221,61.19l-2.43,8h-6.07l8.75-28.26q2.39-7.81,2.39-8.95a2.09,2.09,0,0,0-.3-1.25,1.11,1.11,0,0,0-.94-.39q-2.94,0-7,7.26H213.1q6.22-11.3,11.79-11.29a3.54,3.54,0,0,1,2.91,1.17,5.43,5.43,0,0,1,1,3.55q0,4.28-3.33,13.23,9-18,17.51-17.95a7,7,0,0,1,4.78,1.81,6.73,6.73,0,0,1,2,5.3q0,2.23-2,8.36L242.4,57.61a55.56,55.56,0,0,0-2.14,7.16,1.92,1.92,0,0,0,.48,1.42,1.86,1.86,0,0,0,1.37.47,5.47,5.47,0,0,0,3.63-1.92A27.34,27.34,0,0,0,249.87,59.05Z"/><path class="cls-1" d="M87.43,93.72h-.7l2.89-4.63c.85-1.35,1.4-2.3,1.67-2.86a20.27,20.27,0,0,0,.91-2.54l.22-.73h1.83l-1,3.42L91.93,90c1.38-1.95,2.7-2.92,3.94-2.92a2.35,2.35,0,0,1,1.93,1.05,4.21,4.21,0,0,1,.79,2.62A11.68,11.68,0,0,1,97.65,95,10.28,10.28,0,0,1,95,98.9a5.24,5.24,0,0,1-3.46,1.55,2,2,0,0,1-2.09-1.56l-1.79,5.91a7.08,7.08,0,0,0-.34,1.35.54.54,0,0,0,.22.44,2.61,2.61,0,0,0,1.29.19h.69l-.21.67H82.88l.21-.67h.34a3.8,3.8,0,0,0,1.6-.19,5.38,5.38,0,0,0,.8-1.91L89,94.18c.67-2.19,1.45-4.43,2.32-6.71-.1.14-.37.6-.81,1.37,0,.09-.21.35-.49.78Zm2.83,2.34a8,8,0,0,0-.41,2,2,2,0,0,0,.41,1.26,1.4,1.4,0,0,0,1.16.53,3.24,3.24,0,0,0,2.29-1.28,11.94,11.94,0,0,0,2.14-4.25,15.88,15.88,0,0,0,1-4.47,2.75,2.75,0,0,0-.31-1.47,1,1,0,0,0-.91-.49,3.88,3.88,0,0,0-2.2,1.21q-1.37,1.2-2.53,5Z"/><path class="cls-1" d="M105.9,96.35h.67q-1.56,4.09-4,4.1a1.75,1.75,0,0,1-1.35-.56,2,2,0,0,1-.5-1.4,20.55,20.55,0,0,1,1-4.08l3.58-11.8a12,12,0,0,0,.46-1.75.62.62,0,0,0-.21-.52,2.14,2.14,0,0,0-1-.15h-.6l.2-.64a10.62,10.62,0,0,0,3.72-.55h.38l-4.92,16.2c-.07.26-.22.72-.45,1.39a7.24,7.24,0,0,0-.44,2,1.09,1.09,0,0,0,.18.69.61.61,0,0,0,.52.23,2.17,2.17,0,0,0,1.3-.72A7.05,7.05,0,0,0,105.9,96.35Z"/><path class="cls-1" d="M117.47,87.3h1.84l-2.72,9a12.89,12.89,0,0,0-.6,2.35.71.71,0,0,0,.14.47.5.5,0,0,0,.41.16c.7,0,1.51-.81,2.43-2.42h.64a8,8,0,0,1-1.7,2.5,3.08,3.08,0,0,1-2,1.13,1.26,1.26,0,0,1-1.1-.54,2.14,2.14,0,0,1-.39-1.31,6.12,6.12,0,0,1,.31-1.64,9.66,9.66,0,0,1-2,2.33,3.87,3.87,0,0,1-2.46,1.16,2.37,2.37,0,0,1-1.84-.91,3.72,3.72,0,0,1-.77-2.46,10,10,0,0,1,1.19-4.45,12.16,12.16,0,0,1,3.11-4,5.6,5.6,0,0,1,3.28-1.59,2,2,0,0,1,1.26.38,1.92,1.92,0,0,1,.62,1.15Zm-8,10.24a3,3,0,0,0,.3,1.52,1,1,0,0,0,.92.52,3.83,3.83,0,0,0,2.42-1.49,12.31,12.31,0,0,0,2.46-4.54,16.3,16.3,0,0,0,1-4.16,1.81,1.81,0,0,0-.33-1.09,1.09,1.09,0,0,0-.94-.45c-1.25,0-2.53,1.23-3.87,3.68A13.6,13.6,0,0,0,109.48,97.54Z"/><path class="cls-1" d="M131.93,97.15h.78a9,9,0,0,1-1.87,2.47,3,3,0,0,1-2,.83,1.76,1.76,0,0,1-1.18-.42,1.56,1.56,0,0,1-.5-1.25,11,11,0,0,1,.7-2.72l1.64-4.66a10.44,10.44,0,0,0,.66-2.48,1.12,1.12,0,0,0-.22-.75.89.89,0,0,0-.68-.24c-.78,0-1.79.91-3,2.73a26.2,26.2,0,0,0-3.22,7.14l-.75,2.45h-1.86l2.69-8.68a18.51,18.51,0,0,0,.73-2.76.64.64,0,0,0-.09-.38.34.34,0,0,0-.29-.12c-.6,0-1.31.74-2.14,2.23h-.7q1.9-3.47,3.62-3.47a1.1,1.1,0,0,1,.9.36,1.73,1.73,0,0,1,.29,1.09,13.33,13.33,0,0,1-1,4.07c1.84-3.68,3.64-5.52,5.38-5.52a2.16,2.16,0,0,1,1.47.56,2,2,0,0,1,.62,1.63,9.82,9.82,0,0,1-.62,2.56l-1.64,4.88a17.23,17.23,0,0,0-.66,2.2.59.59,0,0,0,.15.44.56.56,0,0,0,.42.14,1.67,1.67,0,0,0,1.12-.58A8.74,8.74,0,0,0,131.93,97.15Z"/><path class="cls-1" d="M149.62,87.5l-.21.67h-2.29l-2,6.68a24,24,0,0,0-1,3.82.83.83,0,0,0,.16.56.56.56,0,0,0,.46.19c.37,0,.85-.34,1.44-1a10.76,10.76,0,0,0,1.59-2.61h.67a10.49,10.49,0,0,1-2.13,3.48,3.33,3.33,0,0,1-2.19,1.2,1.58,1.58,0,0,1-1.25-.55,2.08,2.08,0,0,1-.46-1.39,20,20,0,0,1,.94-3.83l2-6.51h-2.11l.21-.67h2.09l1.41-4.63h1.84l-1.41,4.63Z"/><path class="cls-1" d="M149.56,96a11,11,0,0,1,.86-4,8.7,8.7,0,0,1,2.44-3.51A4.88,4.88,0,0,1,156,87.15a2.7,2.7,0,0,1,2.24,1.15,5,5,0,0,1,.88,3.13,10.75,10.75,0,0,1-1,4.52,8.49,8.49,0,0,1-2.45,3.28,4.78,4.78,0,0,1-2.9,1.14,3,3,0,0,1-2.22-1A4.77,4.77,0,0,1,149.56,96Zm1.64,1.76a2.3,2.3,0,0,0,.42,1.4,1.38,1.38,0,0,0,1.18.58q2.05,0,3.37-3.88a20.32,20.32,0,0,0,1.33-5.93,2.57,2.57,0,0,0-.41-1.58,1.45,1.45,0,0,0-1.22-.53q-1.91,0-3.29,3.6A18.06,18.06,0,0,0,151.2,97.76Z"/><path class="cls-1" d="M175.46,96.66a3.77,3.77,0,0,1-1.1,2.6,4.16,4.16,0,0,1-3.21,1.19,3.48,3.48,0,0,1-2.37-.7,2,2,0,0,1-.78-1.49,1.2,1.2,0,0,1,.23-.73.73.73,0,0,1,.61-.31c.55,0,.82.29.82.87a2.58,2.58,0,0,1-.09.57.84.84,0,0,0-.06.26c0,.24.16.45.47.63a2.29,2.29,0,0,0,1.14.27,3,3,0,0,0,1.86-.65,2.14,2.14,0,0,0,.84-1.8,7.67,7.67,0,0,0-1.18-3.13,9,9,0,0,1-1.37-3.62,3.17,3.17,0,0,1,1.16-2.48,3.93,3.93,0,0,1,2.64-1,3.15,3.15,0,0,1,1.86.55,1.5,1.5,0,0,1,.77,1.18c0,.54-.22.81-.67.81s-.58-.3-.73-.9a1.24,1.24,0,0,0-1.33-1,2.48,2.48,0,0,0-1.52.48,1.48,1.48,0,0,0-.64,1.24,6.37,6.37,0,0,0,1,2.85,19.56,19.56,0,0,1,1.29,2.53A5,5,0,0,1,175.46,96.66Z"/><path class="cls-1" d="M189.78,96.87h.64c-.86,2.38-2,3.58-3.51,3.58a1.44,1.44,0,0,1-1.13-.42,1.76,1.76,0,0,1-.37-1.23,13.76,13.76,0,0,1,.82-3.72q-2.67,5.37-5.28,5.37a2,2,0,0,1-1.52-.6,2.09,2.09,0,0,1-.55-1.48,10.42,10.42,0,0,1,.69-2.89L181.45,90a7.82,7.82,0,0,0,.41-1.47.35.35,0,0,0-.4-.39q-1,0-2.1,2.58h-.74a7.47,7.47,0,0,1,1.61-2.62,2.8,2.8,0,0,1,2-1,1.48,1.48,0,0,1,1,.38,1.42,1.42,0,0,1,.42,1.12,8.65,8.65,0,0,1-.54,2.14l-1.92,5.65a9,9,0,0,0-.55,2.18,1.06,1.06,0,0,0,.21.71.78.78,0,0,0,.63.25q1.35,0,3.19-2.86a34.08,34.08,0,0,0,3.55-8.5l.26-.87h1.84L187.61,96a14.4,14.4,0,0,0-.64,2.59.92.92,0,0,0,.15.57.55.55,0,0,0,.46.19C188.35,99.39,189.09,98.55,189.78,96.87Z"/><path class="cls-1" d="M198.89,95.68h.61a8.48,8.48,0,0,1-2.09,3.47,4,4,0,0,1-2.8,1.3,2.45,2.45,0,0,1-2-.93,4,4,0,0,1-.75-2.6,10.82,10.82,0,0,1,1-4.31,11,11,0,0,1,2.86-3.93A5.32,5.32,0,0,1,199,87.07a2,2,0,0,1,1.38.52,1.67,1.67,0,0,1,.56,1.25c0,.73-.29,1.09-.87,1.09s-.9-.4-.93-1.21q0-.9-.69-.9c-.57,0-1.23.53-2,1.58a14.86,14.86,0,0,0-1.94,4.22,15.07,15.07,0,0,0-.81,4,2.11,2.11,0,0,0,.44,1.4,1.37,1.37,0,0,0,1.07.51,3,3,0,0,0,2-1A7.48,7.48,0,0,0,198.89,95.68Z"/><path class="cls-1" d="M209,95.68h.61a8.5,8.5,0,0,1-2.1,3.47,4,4,0,0,1-2.79,1.3,2.42,2.42,0,0,1-2-.93,4,4,0,0,1-.76-2.6,11.79,11.79,0,0,1,3.88-8.24,5.3,5.3,0,0,1,3.24-1.61,2,2,0,0,1,1.38.52,1.64,1.64,0,0,1,.56,1.25c0,.73-.29,1.09-.87,1.09s-.9-.4-.93-1.21q0-.9-.69-.9c-.57,0-1.23.53-2,1.58a14.58,14.58,0,0,0-1.95,4.22,15.07,15.07,0,0,0-.81,4,2.07,2.07,0,0,0,.45,1.4,1.36,1.36,0,0,0,1.07.51,3,3,0,0,0,2-1A7.49,7.49,0,0,0,209,95.68Z"/><path class="cls-1" d="M218.92,96.12h.73c-1.29,2.88-3,4.33-5,4.33a2.62,2.62,0,0,1-2-.88,3.42,3.42,0,0,1-.79-2.38,11.07,11.07,0,0,1,1-4.28,11.7,11.7,0,0,1,2.89-4.11A5.25,5.25,0,0,1,219,87.07a1.59,1.59,0,0,1,1.3.54,2.13,2.13,0,0,1,.44,1.36,4.36,4.36,0,0,1-1.65,3.17,17.64,17.64,0,0,1-4.95,2.93,8,8,0,0,0-.43,2.52,2.41,2.41,0,0,0,.38,1.47,1.36,1.36,0,0,0,1.13.48Q217.33,99.54,218.92,96.12Zm-4.54-1.83a12,12,0,0,0,3.54-2.45A4.31,4.31,0,0,0,219.5,89a1.3,1.3,0,0,0-.24-.86.86.86,0,0,0-.71-.28c-.61,0-1.33.59-2.16,1.78A14.62,14.62,0,0,0,214.38,94.29Z"/><path class="cls-1" d="M228.38,96.12h.73c-1.29,2.88-3,4.33-5,4.33a2.62,2.62,0,0,1-2-.88,3.42,3.42,0,0,1-.79-2.38,11.07,11.07,0,0,1,1-4.28,11.83,11.83,0,0,1,2.89-4.11,5.27,5.27,0,0,1,3.26-1.73,1.58,1.58,0,0,1,1.3.54,2.08,2.08,0,0,1,.44,1.36,4.33,4.33,0,0,1-1.65,3.17,17.64,17.64,0,0,1-4.95,2.93,8.34,8.34,0,0,0-.43,2.52,2.34,2.34,0,0,0,.39,1.47,1.35,1.35,0,0,0,1.13.48Q226.79,99.54,228.38,96.12Zm-4.54-1.83a11.94,11.94,0,0,0,3.55-2.45A4.29,4.29,0,0,0,229,89a1.3,1.3,0,0,0-.24-.86.85.85,0,0,0-.71-.28c-.61,0-1.33.59-2.16,1.78A14.62,14.62,0,0,0,223.84,94.29Z"/><path class="cls-1" d="M241.86,97.24h.75a8.91,8.91,0,0,1-1.73,2.23,3,3,0,0,1-1.92,1,1.52,1.52,0,0,1-1.22-.49,2.18,2.18,0,0,1-.42-1.45,4,4,0,0,1,.08-.81q-2.18,2.74-4,2.75a2.27,2.27,0,0,1-1.77-.84,3.58,3.58,0,0,1-.74-2.43,11,11,0,0,1,1.23-4.77,10.76,10.76,0,0,1,3-3.94,5.48,5.48,0,0,1,3.14-1.4,2.14,2.14,0,0,1,1.17.32,2.31,2.31,0,0,1,.77,1l1.86-6.17a6.86,6.86,0,0,0,.34-1.33.62.62,0,0,0-.21-.52,2.07,2.07,0,0,0-1-.15h-.43l.2-.64a9.3,9.3,0,0,0,3.53-.55h.38L240,95.1a21.69,21.69,0,0,0-.9,3.51.94.94,0,0,0,.14.58.52.52,0,0,0,.42.19,1.56,1.56,0,0,0,1-.54A7.84,7.84,0,0,0,241.86,97.24Zm-9.23.64a2.28,2.28,0,0,0,.3,1.29,1,1,0,0,0,.88.44,3.67,3.67,0,0,0,2.37-1.43,13.51,13.51,0,0,0,2.47-4.71,18.34,18.34,0,0,0,1.14-4.15,1.56,1.56,0,0,0-.39-1,1.25,1.25,0,0,0-1-.45A3,3,0,0,0,236.31,89a15.35,15.35,0,0,0-2.39,4.06A12.32,12.32,0,0,0,232.63,97.88Z"/></g></g></svg>